<svg xmlns="http://www.w3.org/2000/svg" viewBox="0 0 39.69 82.21">
    <defs>
        <style>.red{fill:#e1251b;}</style>
    </defs>
    <path class="red" d="M21.51,38a3.18,3.18,0,0,0-3.44,3.4c0,2.32,1.44,3.29,3.44,3.29a3.2,3.2,0,0,0,3.42-3.2A3.17,3.17,0,0,0,21.51,38Z"/>
    <path class="red" d="M18.07,57.9c-.08,3.86,4.68,3.91,5,3.91V54.23S18.14,54.13,18.07,57.9Z"/>
    <path class="red" d="M23.82,15.9c3.06,0,5.74-1.1,5.74-3.81a3.37,3.37,0,0,0-3.51-3.37H22.13a5.13,5.13,0,0,0-3.07.87,3.2,3.2,0,0,0-1,2.5C18.08,14.54,20.67,15.92,23.82,15.9Z"/>
    <path class="red" d="M31.57,37.6c-1.16,0-2.23.81-2.25,3.67,0,1.06,0,2.25,0,2.25a2.54,2.54,0,0,0,2.25,1.71c1.46,0,2.48-1.39,2.48-3.91C34.05,39.5,33.23,37.6,31.57,37.6Z"/>
    <path class="red" d="M0,0V82.21H39.69V0ZM12.64,7.31H25.79a4.78,4.78,0,0,1,5,5c0,3.57-3.17,5.08-7,5.08s-6.87-2-6.84-5.18c0-2.25,1.35-3.29,1.92-3.44H12.64ZM17.2,28.36V26.92l11.72-3.68c.22-.07.23-.09,0-.18L17.2,19.37V17.94l12.53,4c.71.3,1,.66,1,1.23s-.29.93-1,1.23ZM25,29v5.69H23.58V29Zm-9.9,20v1.42H13.59V49ZM30.61,66.89H22c-1.91,0-3.91.3-3.91,3.2a3.14,3.14,0,0,0,.72,2.23A4.06,4.06,0,0,0,22,73.48h8.63V74.9H12.69V73.48h6.39a3.6,3.6,0,0,1-2.2-3.64,4.23,4.23,0,0,1,1.53-3.62A6.08,6.08,0,0,1,22,65.48h8.63Zm-6.67-3.51c-2.16,0-7-.63-7.06-5.43s5.33-5.16,6.71-5.16h.67v9.1h.47c1.24-.08,4.69-.43,4.69-4.71a5,5,0,0,0-1.87-4l1.74.17a5.51,5.51,0,0,1,1.42,3.83C30.71,63,26,63.38,23.94,63.38ZM17.2,50.44V49H30.61v1.41Zm14.6-3.89A3.07,3.07,0,0,1,29,44.76c-.2,1.14-.72,1.68-1.74,1.71-1.83.05-2.13-2-2.13-2.58A3.67,3.67,0,0,1,21.51,46c-3.49,0-4.63-2.33-4.63-4.44,0,0,0-.06,0-.1h0v-5h1.18v1.58a4.44,4.44,0,0,1,3.45-1.43c2.77,0,4.51,1.78,4.51,4.74,0,1.85-.14,3.76,1,3.76,1.31,0,1-2.67,1-4,0-3.42,1.24-5,3.54-4.91s3.67,2.2,3.67,5.06C35.24,44.81,33.71,46.55,31.8,46.55Z"/>
</svg>